<svg width="265" height="85" viewBox="0 0 265 85" fill="none" xmlns="http://www.w3.org/2000/svg">
<path d="M90.128 58H86L79.784 49.312V58H76.16V40.864H79.784V49.168L85.928 40.864H89.792L83.552 49.096L90.128 58ZM103.613 48.328C103.613 49.032 103.389 49.632 102.941 50.128C102.509 50.624 101.861 50.944 100.997 51.088V51.184C101.909 51.296 102.637 51.608 103.181 52.12C103.741 52.632 104.021 53.288 104.021 54.088C104.021 54.648 103.909 55.168 103.685 55.648C103.477 56.128 103.141 56.544 102.677 56.896C102.213 57.248 101.613 57.52 100.877 57.712C100.157 57.904 99.277 58 98.237 58H91.997V44.896H98.237C99.261 44.896 100.173 45.008 100.973 45.232C101.789 45.44 102.429 45.792 102.893 46.288C103.373 46.784 103.613 47.464 103.613 48.328ZM100.325 53.896C100.325 53.384 100.125 53.016 99.725 52.792C99.325 52.552 98.725 52.432 97.925 52.432H95.573V55.528H97.997C98.669 55.528 99.221 55.408 99.653 55.168C100.101 54.912 100.325 54.488 100.325 53.896ZM99.989 48.616C99.989 48.2 99.829 47.896 99.509 47.704C99.189 47.512 98.717 47.416 98.093 47.416H95.573V50.008H97.685C98.437 50.008 99.005 49.904 99.389 49.696C99.789 49.472 99.989 49.112 99.989 48.616ZM112.467 44.632C114.227 44.632 115.571 45.016 116.499 45.784C117.443 46.536 117.915 47.696 117.915 49.264V58H115.419L114.723 56.224H114.627C114.259 56.688 113.875 57.072 113.475 57.376C113.091 57.68 112.643 57.896 112.131 58.024C111.635 58.168 111.019 58.24 110.283 58.24C109.515 58.24 108.819 58.096 108.195 57.808C107.587 57.504 107.107 57.048 106.755 56.44C106.403 55.816 106.227 55.032 106.227 54.088C106.227 52.696 106.715 51.672 107.691 51.016C108.667 50.344 110.131 49.976 112.083 49.912L114.363 49.84V49.264C114.363 48.576 114.179 48.072 113.811 47.752C113.459 47.432 112.963 47.272 112.323 47.272C111.683 47.272 111.059 47.368 110.451 47.56C109.843 47.736 109.235 47.96 108.627 48.232L107.451 45.808C108.155 45.44 108.931 45.152 109.779 44.944C110.643 44.736 111.539 44.632 112.467 44.632ZM112.971 51.976C111.819 52.008 111.019 52.216 110.571 52.6C110.123 52.984 109.899 53.488 109.899 54.112C109.899 54.656 110.059 55.048 110.379 55.288C110.699 55.512 111.115 55.624 111.627 55.624C112.395 55.624 113.043 55.4 113.571 54.952C114.099 54.488 114.363 53.84 114.363 53.008V51.928L112.971 51.976ZM133.359 44.896V55.384H135.279V62.704H132.063V58H123.255V62.704H120.039V55.384H121.143C121.719 54.504 122.207 53.504 122.607 52.384C123.007 51.248 123.327 50.04 123.567 48.76C123.807 47.48 123.983 46.192 124.095 44.896H133.359ZM127.095 47.584C126.967 48.544 126.807 49.48 126.615 50.392C126.423 51.288 126.183 52.152 125.895 52.984C125.623 53.816 125.287 54.616 124.887 55.384H129.783V47.584H127.095ZM144.809 44.656C146.281 44.656 147.473 45.232 148.385 46.384C149.297 47.52 149.753 49.2 149.753 51.424C149.753 52.912 149.537 54.168 149.105 55.192C148.673 56.2 148.081 56.96 147.329 57.472C146.577 57.984 145.705 58.24 144.713 58.24C144.089 58.24 143.545 58.16 143.081 58C142.633 57.84 142.249 57.632 141.929 57.376C141.609 57.12 141.329 56.848 141.089 56.56H140.897C140.961 56.864 141.009 57.184 141.041 57.52C141.073 57.84 141.089 58.16 141.089 58.48V63.76H137.513V44.896H140.417L140.921 46.6H141.089C141.329 46.248 141.617 45.928 141.953 45.64C142.289 45.336 142.689 45.096 143.153 44.92C143.633 44.744 144.185 44.656 144.809 44.656ZM143.657 47.512C143.033 47.512 142.537 47.64 142.169 47.896C141.801 48.152 141.529 48.544 141.353 49.072C141.193 49.584 141.105 50.232 141.089 51.016V51.4C141.089 52.248 141.169 52.968 141.329 53.56C141.489 54.136 141.761 54.576 142.145 54.88C142.529 55.184 143.049 55.336 143.705 55.336C144.249 55.336 144.697 55.184 145.049 54.88C145.401 54.576 145.665 54.128 145.841 53.536C146.017 52.944 146.105 52.224 146.105 51.376C146.105 50.096 145.905 49.136 145.505 48.496C145.121 47.84 144.505 47.512 143.657 47.512ZM164.604 51.424C164.604 52.512 164.452 53.48 164.148 54.328C163.86 55.176 163.436 55.896 162.876 56.488C162.332 57.064 161.668 57.504 160.884 57.808C160.1 58.096 159.212 58.24 158.22 58.24C157.308 58.24 156.46 58.096 155.676 57.808C154.908 57.504 154.244 57.064 153.684 56.488C153.124 55.896 152.684 55.176 152.364 54.328C152.06 53.48 151.908 52.512 151.908 51.424C151.908 49.968 152.164 48.744 152.676 47.752C153.188 46.744 153.924 45.976 154.884 45.448C155.844 44.92 156.98 44.656 158.292 44.656C159.524 44.656 160.612 44.92 161.556 45.448C162.5 45.976 163.244 46.744 163.788 47.752C164.332 48.744 164.604 49.968 164.604 51.424ZM155.556 51.424C155.556 52.288 155.644 53.016 155.82 53.608C156.012 54.184 156.308 54.624 156.708 54.928C157.108 55.216 157.628 55.36 158.268 55.36C158.908 55.36 159.42 55.216 159.804 54.928C160.204 54.624 160.492 54.184 160.668 53.608C160.86 53.016 160.956 52.288 160.956 51.424C160.956 50.56 160.86 49.84 160.668 49.264C160.492 48.688 160.204 48.256 159.804 47.968C159.404 47.68 158.884 47.536 158.244 47.536C157.3 47.536 156.612 47.864 156.18 48.52C155.764 49.16 155.556 50.128 155.556 51.424ZM176.152 44.896H180.088L174.904 51.184L180.544 58H176.488L171.136 51.352V58H167.56V44.896H171.136V51.256L176.152 44.896ZM193.854 51.424C193.854 52.512 193.702 53.48 193.398 54.328C193.11 55.176 192.686 55.896 192.126 56.488C191.582 57.064 190.918 57.504 190.134 57.808C189.35 58.096 188.462 58.24 187.47 58.24C186.558 58.24 185.71 58.096 184.926 57.808C184.158 57.504 183.494 57.064 182.934 56.488C182.374 55.896 181.934 55.176 181.614 54.328C181.31 53.48 181.158 52.512 181.158 51.424C181.158 49.968 181.414 48.744 181.926 47.752C182.438 46.744 183.174 45.976 184.134 45.448C185.094 44.92 186.23 44.656 187.542 44.656C188.774 44.656 189.862 44.92 190.806 45.448C191.75 45.976 192.494 46.744 193.038 47.752C193.582 48.744 193.854 49.968 193.854 51.424ZM184.806 51.424C184.806 52.288 184.894 53.016 185.07 53.608C185.262 54.184 185.558 54.624 185.958 54.928C186.358 55.216 186.878 55.36 187.518 55.36C188.158 55.36 188.67 55.216 189.054 54.928C189.454 54.624 189.742 54.184 189.918 53.608C190.11 53.016 190.206 52.288 190.206 51.424C190.206 50.56 190.11 49.84 189.918 49.264C189.742 48.688 189.454 48.256 189.054 47.968C188.654 47.68 188.134 47.536 187.494 47.536C186.55 47.536 185.862 47.864 185.43 48.52C185.014 49.16 184.806 50.128 184.806 51.424ZM208.714 44.896V58H205.138V47.584H200.386V58H196.81V44.896H208.714ZM223.314 47.584H219.018V58H215.442V47.584H211.146V44.896H223.314V47.584ZM230.897 44.656C232.113 44.656 233.153 44.888 234.017 45.352C234.897 45.816 235.577 46.488 236.057 47.368C236.537 48.248 236.777 49.328 236.777 50.608V52.336H228.329C228.361 53.344 228.657 54.136 229.217 54.712C229.793 55.288 230.585 55.576 231.593 55.576C232.441 55.576 233.209 55.496 233.897 55.336C234.585 55.16 235.297 54.896 236.033 54.544V57.304C235.393 57.624 234.713 57.856 233.993 58C233.289 58.16 232.433 58.24 231.425 58.24C230.113 58.24 228.953 58 227.945 57.52C226.937 57.024 226.145 56.28 225.569 55.288C224.993 54.296 224.705 53.048 224.705 51.544C224.705 50.008 224.961 48.736 225.473 47.728C226.001 46.704 226.729 45.936 227.657 45.424C228.585 44.912 229.665 44.656 230.897 44.656ZM230.921 47.2C230.233 47.2 229.657 47.424 229.193 47.872C228.745 48.32 228.481 49.016 228.401 49.96H233.417C233.417 49.432 233.321 48.96 233.129 48.544C232.953 48.128 232.681 47.8 232.313 47.56C231.945 47.32 231.481 47.2 230.921 47.2ZM246.973 44.656C248.445 44.656 249.637 45.232 250.549 46.384C251.461 47.52 251.917 49.2 251.917 51.424C251.917 52.912 251.701 54.168 251.269 55.192C250.837 56.2 250.245 56.96 249.493 57.472C248.741 57.984 247.869 58.24 246.877 58.24C246.253 58.24 245.709 58.16 245.245 58C244.797 57.84 244.413 57.632 244.093 57.376C243.773 57.12 243.493 56.848 243.253 56.56H243.061C243.125 56.864 243.173 57.184 243.205 57.52C243.237 57.84 243.253 58.16 243.253 58.48V63.76H239.677V44.896H242.581L243.085 46.6H243.253C243.493 46.248 243.781 45.928 244.117 45.64C244.453 45.336 244.853 45.096 245.317 44.92C245.797 44.744 246.349 44.656 246.973 44.656ZM245.821 47.512C245.197 47.512 244.701 47.64 244.333 47.896C243.965 48.152 243.693 48.544 243.517 49.072C243.357 49.584 243.269 50.232 243.253 51.016V51.4C243.253 52.248 243.333 52.968 243.493 53.56C243.653 54.136 243.925 54.576 244.309 54.88C244.693 55.184 245.213 55.336 245.869 55.336C246.413 55.336 246.861 55.184 247.213 54.88C247.565 54.576 247.829 54.128 248.005 53.536C248.181 52.944 248.269 52.224 248.269 51.376C248.269 50.096 248.069 49.136 247.669 48.496C247.285 47.84 246.669 47.512 245.821 47.512ZM256.976 55.888V52.84H253.736V49.84H256.976V46.744H260V49.84H263.216V52.84H260V55.888H256.976Z" fill="#343739"/>
<path d="M21.5 49C21.5 48.1716 20.8284 47.5 20 47.5C19.1716 47.5 18.5 48.1716 18.5 49H21.5ZM18.5 71C18.5 71.8284 19.1716 72.5 20 72.5C20.8284 72.5 21.5 71.8284 21.5 71H18.5ZM30.0607 41.0648C30.6464 40.479 30.6464 39.5292 30.0607 38.9434C29.4749 38.3577 28.5251 38.3577 27.9393 38.9434L30.0607 41.0648ZM18.9393 47.9434C18.3536 48.5292 18.3536 49.479 18.9393 50.0648C19.5251 50.6506 20.4749 50.6506 21.0607 50.0648L18.9393 47.9434ZM65 49H66.5V48.3787L66.0607 47.9393L65 49ZM63.5 71C63.5 71.8284 64.1716 72.5 65 72.5C65.8284 72.5 66.5 71.8284 66.5 71H63.5ZM57.0607 38.9393C56.4749 38.3536 55.5251 38.3536 54.9393 38.9393C54.3536 39.5251 54.3536 40.4749 54.9393 41.0607L57.0607 38.9393ZM29 40H30.5H29ZM31 38V39.5V38ZM58 38V36.5V38ZM60 40H61.5H60ZM58 42V40.5V42ZM31 42V43.5V42ZM21.2067 26.109C20.7146 25.4426 19.7754 25.3012 19.109 25.7933C18.4426 26.2854 18.3012 27.2246 18.7933 27.891L21.2067 26.109ZM28.0237 40.3915C28.5157 41.058 29.4549 41.1993 30.1214 40.7072C30.7878 40.2151 30.9291 39.2759 30.437 38.6095L28.0237 40.3915ZM65.437 27.891C65.9291 27.2246 65.7878 26.2854 65.1214 25.7933C64.4549 25.3012 63.5158 25.4426 63.0237 26.109L65.437 27.891ZM53.7933 38.6095C53.3012 39.2759 53.4426 40.2151 54.109 40.7072C54.7754 41.1993 55.7146 41.058 56.2067 40.3915L53.7933 38.6095ZM81.539 28.5C82.3675 28.5 83.039 27.8284 83.039 27C83.039 26.1716 82.3675 25.5 81.539 25.5V28.5ZM66 25.5C65.1716 25.5 64.5 26.1716 64.5 27C64.5 27.8284 65.1716 28.5 66 28.5V25.5ZM80.539 28.5C81.3675 28.5 82.039 27.8284 82.039 27C82.039 26.1716 81.3675 25.5 80.539 25.5V28.5ZM65 25.5C64.1716 25.5 63.5 26.1716 63.5 27C63.5 27.8284 64.1716 28.5 65 28.5V25.5ZM19.539 28.5C20.3675 28.5 21.039 27.8284 21.039 27C21.039 26.1716 20.3675 25.5 19.539 25.5V28.5ZM4 25.5C3.17157 25.5 2.5 26.1716 2.5 27C2.5 27.8284 3.17157 28.5 4 28.5V25.5ZM2.5 26.539C2.5 27.3675 3.17157 28.039 4 28.039C4.82843 28.039 5.5 27.3675 5.5 26.539H2.5ZM5.5 11C5.5 10.1716 4.82843 9.5 4 9.5C3.17157 9.5 2.5 10.1716 2.5 11H5.5ZM43.5 43C43.5 42.1716 42.8284 41.5 42 41.5C41.1716 41.5 40.5 42.1716 40.5 43H43.5ZM40.5 44V45.5H43.5V44H40.5ZM9 19H7.5V20.5H9V19ZM10.5 11C10.5 10.1716 9.82843 9.5 9 9.5C8.17157 9.5 7.5 10.1716 7.5 11H10.5ZM5.5 25C5.5 25.8284 6.17157 26.5 7 26.5C7.82843 26.5 8.5 25.8284 8.5 25H5.5ZM8.5 15C8.5 14.1716 7.82843 13.5 7 13.5C6.17157 13.5 5.5 14.1716 5.5 15H8.5ZM29 20.5C29.8284 20.5 30.5 19.8284 30.5 19C30.5 18.1716 29.8284 17.5 29 17.5V20.5ZM81 20.5C81.8284 20.5 82.5 19.8284 82.5 19C82.5 18.1716 81.8284 17.5 81 17.5V20.5ZM55 17.5C54.1716 17.5 53.5 18.1716 53.5 19C53.5 19.8284 54.1716 20.5 55 20.5V17.5ZM80.5 26.539C80.5 27.3675 81.1716 28.039 82 28.039C82.8284 28.039 83.5 27.3675 83.5 26.539H80.5ZM83.5 11C83.5 10.1716 82.8284 9.5 82 9.5C81.1716 9.5 80.5 10.1716 80.5 11H83.5ZM77.5 25C77.5 25.8284 78.1716 26.5 79 26.5C79.8284 26.5 80.5 25.8284 80.5 25H77.5ZM80.5 11C80.5 10.1716 79.8284 9.5 79 9.5C78.1716 9.5 77.5 10.1716 77.5 11H80.5ZM5 7.5C5 8.32843 5.67157 9 6.5 9C7.32843 9 8 8.32843 8 7.5H5ZM8 2.5C8 1.67157 7.32843 1 6.5 1C5.67157 1 5 1.67157 5 2.5H8ZM11.5 3C12.3284 3 13 2.32843 13 1.5C13 0.671573 12.3284 0 11.5 0V3ZM1.5 0C0.671573 0 0 0.671573 0 1.5C0 2.32843 0.671573 3 1.5 3V0ZM78 7.5C78 8.32843 78.6716 9 79.5 9C80.3284 9 81 8.32843 81 7.5H78ZM81 2.5C81 1.67157 80.3284 1 79.5 1C78.6716 1 78 1.67157 78 2.5H81ZM84.5 3C85.3284 3 86 2.32843 86 1.5C86 0.671573 85.3284 0 84.5 0V3ZM74.5 0C73.6716 0 73 0.671573 73 1.5C73 2.32843 73.6716 3 74.5 3V0ZM18.5 49V71H21.5V49H18.5ZM27.9393 38.9434L18.9393 47.9434L21.0607 50.0648L30.0607 41.0648L27.9393 38.9434ZM63.5 49V71H66.5V49H63.5ZM54.9393 41.0607L63.9393 50.0607L66.0607 47.9393L57.0607 38.9393L54.9393 41.0607ZM30.5 40C30.5 39.7239 30.7239 39.5 31 39.5V36.5C29.067 36.5 27.5 38.067 27.5 40H30.5ZM31 39.5L58 39.5V36.5L31 36.5V39.5ZM58 39.5C58.2761 39.5 58.5 39.7239 58.5 40H61.5C61.5 38.067 59.933 36.5 58 36.5V39.5ZM58.5 40C58.5 40.2761 58.2761 40.5 58 40.5V43.5C59.933 43.5 61.5 41.933 61.5 40H58.5ZM58 40.5L31 40.5V43.5L58 43.5V40.5ZM31 40.5C30.7239 40.5 30.5 40.2761 30.5 40H27.5C27.5 41.933 29.067 43.5 31 43.5V40.5ZM18.7933 27.891L28.0237 40.3915L30.437 38.6095L21.2067 26.109L18.7933 27.891ZM63.0237 26.109L53.7933 38.6095L56.2067 40.3915L65.437 27.891L63.0237 26.109ZM81.539 25.5H66V28.5H81.539V25.5ZM80.539 25.5H65V28.5H80.539V25.5ZM19.539 25.5H4V28.5H19.539V25.5ZM5.5 26.539V11H2.5V26.539H5.5ZM40.5 43V44H43.5V43H40.5ZM10.5 19V11H7.5L7.5 19H10.5ZM8.5 25L8.5 15H5.5L5.5 25H8.5ZM29 17.5H9V20.5H29V17.5ZM81 17.5H55V20.5H81V17.5ZM83.5 26.539V11H80.5V26.539H83.5ZM9.5 10.5C9.5 12.1569 8.15685 13.5 6.5 13.5V16.5C9.81371 16.5 12.5 13.8137 12.5 10.5H9.5ZM6.5 13.5C4.84315 13.5 3.5 12.1569 3.5 10.5H0.5C0.5 13.8137 3.18629 16.5 6.5 16.5V13.5ZM3.5 10.5C3.5 8.84315 4.84315 7.5 6.5 7.5V4.5C3.18629 4.5 0.5 7.18629 0.5 10.5H3.5ZM6.5 7.5C8.15685 7.5 9.5 8.84315 9.5 10.5H12.5C12.5 7.18629 9.81371 4.5 6.5 4.5V7.5ZM80.5 25V11H77.5V25H80.5ZM82.5 10.5C82.5 12.1569 81.1569 13.5 79.5 13.5V16.5C82.8137 16.5 85.5 13.8137 85.5 10.5H82.5ZM79.5 13.5C77.8431 13.5 76.5 12.1569 76.5 10.5H73.5C73.5 13.8137 76.1863 16.5 79.5 16.5V13.5ZM76.5 10.5C76.5 8.84315 77.8431 7.5 79.5 7.5V4.5C76.1863 4.5 73.5 7.18629 73.5 10.5H76.5ZM79.5 7.5C81.1569 7.5 82.5 8.84315 82.5 10.5H85.5C85.5 7.18629 82.8137 4.5 79.5 4.5V7.5ZM30.5 16C30.5 14.067 32.067 12.5 34 12.5V9.5C30.4101 9.5 27.5 12.4101 27.5 16H30.5ZM34 12.5H50V9.5H34V12.5ZM50 12.5C51.933 12.5 53.5 14.067 53.5 16H56.5C56.5 12.4101 53.5899 9.5 50 9.5V12.5ZM53.5 16V20H56.5V16H53.5ZM53.5 20C53.5 21.933 51.933 23.5 50 23.5V26.5C53.5899 26.5 56.5 23.5898 56.5 20H53.5ZM50 23.5H34V26.5H50V23.5ZM34 23.5C32.067 23.5 30.5 21.933 30.5 20H27.5C27.5 23.5898 30.4101 26.5 34 26.5V23.5ZM30.5 20V16H27.5V20H30.5ZM31.5 51C31.5 50.1716 32.1716 49.5 33 49.5V46.5C30.5147 46.5 28.5 48.5147 28.5 51H31.5ZM33 49.5H51V46.5H33V49.5ZM51 49.5C51.8284 49.5 52.5 50.1716 52.5 51H55.5C55.5 48.5147 53.4853 46.5 51 46.5V49.5ZM52.5 51V59H55.5V51H52.5ZM52.5 59C52.5 59.8284 51.8284 60.5 51 60.5V63.5C53.4853 63.5 55.5 61.4853 55.5 59H52.5ZM51 60.5H33V63.5H51V60.5ZM33 60.5C32.1716 60.5 31.5 59.8284 31.5 59H28.5C28.5 61.4853 30.5147 63.5 33 63.5V60.5ZM31.5 59V51H28.5V59H31.5ZM44.5 55C44.5 56.3807 43.3807 57.5 42 57.5V60.5C45.0376 60.5 47.5 58.0376 47.5 55H44.5ZM42 57.5C40.6193 57.5 39.5 56.3807 39.5 55H36.5C36.5 58.0376 38.9624 60.5 42 60.5V57.5ZM39.5 55C39.5 53.6193 40.6193 52.5 42 52.5V49.5C38.9624 49.5 36.5 51.9624 36.5 55H39.5ZM42 52.5C43.3807 52.5 44.5 53.6193 44.5 55H47.5C47.5 51.9624 45.0376 49.5 42 49.5V52.5ZM8 7.5V2.5H5V7.5H8ZM11.5 0H1.5V3H11.5V0ZM81 7.5V2.5H78V7.5H81ZM84.5 0H74.5V3H84.5V0Z" fill="#343739"/>
</svg>
